<svg xmlns="http://www.w3.org/2000/svg" 
     role="img" 
     viewBox="0 0 24 24" 
     fill="green" 
     height="64" 
     width="64">
  <title>Spotify</title>
  <path d="M12 0C5.37 0 0 5.37 0 12c0 6.63 5.37 12 12 12s12-5.37 12-12C24 5.37 18.63 0 12 0zm5.47 17.58a.72.72 0 0 1-.97.27 14.4 14.4 0 0 0-5.14-1.75 14.4 14.4 0 0 0-5.42.26.72.72 0 0 1-.34-1.39c1.95-.47 3.96-.57 5.96-.29 2 .28 3.9.93 5.65 1.92.34.19.46.63.26.98zm1.58-3.15a.93.93 0 0 1-1.26.38 17.7 17.7 0 0 0-5.97-1.96 17.7 17.7 0 0 0-6.28.24.93.93 0 1 1-.4-1.82 19.5 19.5 0 0 1 6.94-.26 19.5 19.5 0 0 1 6.6 2.16c.45.25.62.81.37 1.26zm1.75-3.55a1.15 1.15 0 0 1-1.55.49 21.4 21.4 0 0 0-6.92-2.21 21.4 21.4 0 0 0-7.26.21 1.15 1.15 0 0 1-.46-2.25 23.7 23.7 0 0 1 8.03-.24 23.7 23.7 0 0 1 7.66 2.44c.56.29.78.98.5 1.56z"/>
</svg>
